# xmcd
#
# Track frame offsets: 
#        150
#        12483
#        24872
#        37293
#        50694
#        62718
#        76585
#        93549
#        106092
#        117251
#        127359
#        140566
#        153537
#        166726
#        177220
#
# Disc length: 2566 seconds
#
# Revision: 0
# Processed by: cddbd v1.5.2PL0 Copyright (c) Steve Scherf et al.
# Submitted via: ExactAudioCopy v1.1
#
DISCID=c70a040f
DTITLE=Various Artist - Country Music of Your Life: Talking In Your S
DTITLE=leep [CD2]
DYEAR=2015
DGENRE=Country
TTITLE0=Merle Haggard - If We Make It Through December
TTITLE1=Freddy Fender - Wasted Days and Wasted Nights
TTITLE2=Patsy Cline - Crazy
TTITLE3=Faron Young - It’s Four in the Morning
TTITLE4=Ray Charles - Together Again
TTITLE5=Glen Campbell - Wichita Lineman
TTITLE6=Kenny Rogers - Lady
TTITLE7=Donna Fargo - Funny Face
TTITLE8=Freddie Hart - Easy Loving
TTITLE9=Conway Twitty - It’s Only Make Believe
TTITLE10=Crystal Gayle - Talking in Your Sleep
TTITLE11=Jack Greene - Statue of a Fool
TTITLE12=Anne Murray - Just Another Woman in Love
TTITLE13=Sonny James - Empty Arms
TTITLE14=Olivia Newton-John - Please Mr. Please
EXTD=
EXTT0=
EXTT1=
EXTT2=
EXTT3=
EXTT4=
EXTT5=
EXTT6=
EXTT7=
EXTT8=
EXTT9=
EXTT10=
EXTT11=
EXTT12=
EXTT13=
EXTT14=
PLAYORDER=
